<svg id="chart" viewBox="0 0 1000 500" xmlns="http://www.w3.org/2000/svg">      
<style>
    /***************************************************
 * Generated by SVG Artista on 12/15/2022, 1:16:02 PM
 * MIT license (https://opensource.org/licenses/MIT)
 * W. https://svgartista.net
 **************************************************/

@-webkit-keyframes animate-svg-stroke-1 {
  0% {
    stroke-dashoffset: 2655.50390625px;
    stroke-dasharray: 2655.50390625px;
  }

  100% {
    stroke-dashoffset: 0;
    stroke-dasharray: 2655.50390625px;
  }
}

@keyframes animate-svg-stroke-1 {
  0% {
    stroke-dashoffset: 2655.50390625px;
    stroke-dasharray: 2655.50390625px;
  }

  100% {
    stroke-dashoffset: 0;
    stroke-dasharray: 2655.50390625px;
  }
}

@-webkit-keyframes animate-svg-fill-1 {
  0% {
    fill: transparent;
  }

  100% {
    fill: rgba(0, 0, 0, 0);
  }
}

@keyframes animate-svg-fill-1 {
  0% {
    fill: transparent;
  }

  100% {
    fill: rgba(0, 0, 0, 0);
  }
}

@-webkit-keyframes animate-svg-stroke-2 {
  0% {
    stroke-dashoffset: 1204.2197265625px;
    stroke-dasharray: 1204.2197265625px;
  }

  50% {
    stroke-dashoffset: 0;
    stroke-dasharray: 1204.2197265625px;
  }
}

@keyframes animate-svg-stroke-2 {
  0% {
    stroke-dashoffset: 1204.2197265625px;
    stroke-dasharray: 1204.2197265625px;
  }

  50% {
    stroke-dashoffset: 0;
    stroke-dasharray: 1204.2197265625px;
  }
}
</style>


<path d="M 0,484.9940832685639 C 25.000000000000004,480.292950519181 75,475.0097585854659 125,461.48841952164923 C 175,447.96708045783265 200,440.38968144792454 250,417.38738794948085 C 300,394.38509445103716 325,359.8366215608123 375,346.47695202943083 C 425,333.11728249804935 450,376.6980150833227 500,350.58904029257343 C 550,324.4800655018242 575,236.70093979471488 625,215.93207807568467 C 675,195.16321635665446 700,241.44664253135178 750,246.74473169742242 C 800,252.04282086349306 825,279.0271322124048 875,242.42252390603792 C 925,205.81791559967104 975,99.46185691367805 1000,63.721690165588086,L 1000 500,L 0 500Z" fill="#00000000" class="svg-elem-1"></path>   <path d="M 0,484.9940832685639 C 25.000000000000004,480.292950519181 75,475.0097585854659 125,461.48841952164923 C 175,447.96708045783265 200,440.38968144792454 250,417.38738794948085 C 300,394.38509445103716 325,359.8366215608123 375,346.47695202943083 C 425,333.11728249804935 450,376.6980150833227 500,350.58904029257343 C 550,324.4800655018242 575,236.70093979471488 625,215.93207807568467 C 675,195.16321635665446 700,241.44664253135178 750,246.74473169742242 C 800,252.04282086349306 825,279.0271322124048 875,242.42252390603792 C 925,205.81791559967104 975,99.46185691367805 1000,63.721690165588086" fill="none" stroke="#dadada" stroke-width="7px" class="svg-elem-2"></path>   <g>      </g> 
</svg>