<svg xmlns:xlink="http://www.w3.org/1999/xlink" viewBox="0 0 23 22" color="textSubtle" width="23" xmlns="http://www.w3.org/2000/svg" class="sc-4ba21b47-0 ebMyYP" height="22" ><path d="M21.5 1l-20 20" stroke-width="2px" stroke="#7A6EAA" stroke-linecap="round" fill="#7A6EAA"></path><path fill-rule="evenodd" clip-rule="evenodd" d="M7.033 19H19.5a1 1 0 100-2H9.033l-2 2zm3-3H18.5a1 1 0 001-1V6.533l-2 2V14h-2v-3.467l-2 2V14h-1.467l-2 2zm.936-8H10.5a1 1 0 00-1 1v.469L10.969 8zm-2 2L5.5 13.469V11a1 1 0 011-1h2.469zM4.5 14.469l-2 2V6a1 1 0 012 0v8.469z" fill="#7A6EAA"></path></svg>